<svg width="17" height="14" viewBox="0 0 17 14" fill="none" xmlns="http://www.w3.org/2000/svg">
<path d="M17.0001 2.10638H16.3471C16.1047 2.10638 15.7619 2.4506 15.7619 2.67097V10.6584C15.7619 10.879 16.1047 11.1798 16.3471 11.1798H17.0001V13.0757H11.084V11.1798H12.3223V2.7835H12.2616L9.36999 13.0757H7.13129L4.277 2.7835H4.20477V11.1798H5.44303V13.0757H0.48999V11.1798H1.12422C1.38542 11.1798 1.72825 10.879 1.72825 10.6584V2.67097C1.72825 2.4506 1.38542 2.10638 1.12422 2.10638H0.48999V0.210449H6.68355L8.717 7.65874H8.77294L10.8252 0.210449H17.0001V2.10638Z" fill="#757E9A"/>
</svg>
