<svg width="18" height="14" viewBox="0 0 18 14" fill="none" xmlns="http://www.w3.org/2000/svg">
<path fill-rule="evenodd" clip-rule="evenodd" d="M17.0328 1.84025C16.4253 2.11745 15.7726 2.30402 15.0877 2.38882C15.7868 1.95792 16.3239 1.27579 16.5767 0.463268C15.9222 0.862106 15.1973 1.15176 14.4257 1.30785C13.8081 0.631814 12.9276 0.210449 11.9535 0.210449C10.0832 0.210449 8.56631 1.7687 8.56631 3.69002C8.56631 3.96298 8.59598 4.22852 8.65402 4.48319C5.83853 4.33744 3.3424 2.95144 1.67204 0.847266C1.38053 1.36138 1.2135 1.95871 1.2135 2.59633C1.2135 3.80344 1.81147 4.86838 2.72005 5.49287C2.16541 5.47432 1.64276 5.31797 1.18615 5.05693V5.10066C1.18615 6.78744 2.35476 8.19332 3.90258 8.51332C3.61882 8.59282 3.31957 8.63522 3.01181 8.63522C2.79357 8.63522 2.581 8.61402 2.37462 8.57294C2.80543 9.95576 4.05659 10.9617 5.53864 10.9898C4.37931 11.9227 2.91868 12.4792 1.33113 12.4792C1.05768 12.4792 0.788618 12.4633 0.523682 12.4307C2.02249 13.4181 3.80327 13.9942 5.71599 13.9942C11.946 13.9942 15.3531 8.6914 15.3531 4.09349C15.3531 3.94244 15.3498 3.79271 15.3433 3.64298C16.0053 3.15271 16.5798 2.53922 17.0338 1.84092" fill="#6188FF"/>
</svg>
